{"title":"12 Deaths Of Christmas 2017 1080p BluRay 6CH (5.1) AAC x264 - Ei","magnet":"magnet:?xt=urn:btih:31eecc9d0a809fca2bf2817e28b986b2deceb346&dn=12+Deaths+Of+Christmas+2017+1080p+BluRay+6CH+%285.1%29+AAC+x264+-+Ei&tr=udp%3A%2F%2Ftracker.leechers-paradise.org%3A6969&tr=udp%3A%2F%2Fzer0day.ch%3A1337&tr=udp%3A%2F%2Fopen.demonii.com%3A1337&tr=udp%3A%2F%2Ftracker.coppersurfer.tk%3A6969&tr=udp%3A%2F%2Fexodus.desync.com%3A6969","uploader":"samcode4u","categoryP":"video","categoryS":"hd___movies","size":"1502696099","seeders":"0","leechers":"23","description":"12 Deaths Of Christmas 2017 1080p BluRay 6CH (5.1) AAC x264 - EiE\r\n\r\n <a href=\"\nhttps://www.imdb.com/title/tt6126492/\" rel=\"nofollow\" target=\"_NEW\">\nhttps://www.imdb.com/title/tt6126492/</a>\r\n\r\n\r\n\r\nScreenshots:\r\n\r\n <a href=\"\nhttps://lensdump.com/i/ptVQ1\" rel=\"nofollow\" target=\"_NEW\">\nhttps://lensdump.com/i/ptVQ1</a>\r\n <a href=\"\nhttps://lensdump.com/i/ptQ8H\" rel=\"nofollow\" target=\"_NEW\">\nhttps://lensdump.com/i/ptQ8H</a>\r\n <a href=\"\nhttps://lensdump.com/i/pt9ec\" rel=\"nofollow\" target=\"_NEW\">\nhttps://lensdump.com/i/pt9ec</a>\r\n <a href=\"\nhttps://lensdump.com/i/ptdyK\" rel=\"nofollow\" target=\"_NEW\">\nhttps://lensdump.com/i/ptdyK</a>\r\n\r\n\r\n\r\nVideo\r\nID                                       : 1\r\nFormat                                   : AVC\r\nFormat/Info                              : Advanced Video Codec\r\nFormat settings, CABAC                   : Yes\r\nFormat settings, ReFrames                : 4 frames\r\nCodec ID                                 : avc1\r\nCodec ID/Info                            : Advanced Video Coding\r\nDuration                                 : 1h 28mn\r\nBit rate                                 : 2 001 Kbps\r\nMaximum bit rate                         : 12.4 Mbps\r\nWidth                                    : 1 912 pixels\r\nHeight                                   : 800 pixels\r\nDisplay aspect ratio                     : 2.40:1\r\nFrame rate mode                          : Constant\r\nFrame rate                               : 25.000 fps\r\nColor space                              : YUV\r\nChroma subsampling                       : 4:2:0\r\nBit depth                                : 8 bits\r\nScan type                                : Progressive\r\nBits/(Pixel*Frame)                       : 0.052\r\nStream size                              : 1.24 GiB (89%)\r\n\r\nTagged date                              : UTC 2017-12-21 05:42:53\r\n\r\nAudio\r\nID                                       : 2\r\nFormat                                   : AAC\r\nFormat/Info                              : Advanced Audio Codec\r\nFormat profile                           : LC\r\nCodec ID                                 : 40\r\nDuration                                 : 1h 28mn\r\nBit rate mode                            : Variable\r\nBit rate                                 : 253 Kbps\r\nMaximum bit rate                         : 320 Kbps\r\nChannel(s)                               : 6 channels\r\nChannel positions                        : Front: L C R, Side: L R, LFE\r\nSampling rate                            : 48.0 KHz\r\nCompression mode                         : Lossy\r\nStream size                              : 161 MiB (11%)\r\nLanguage                                 : English","last_updated":"2017-12-21T12:02:31.781Z","parsed":{"xt":"urn:btih:31eecc9d0a809fca2bf2817e28b986b2deceb346","dn":"12 Deaths Of Christmas 2017 1080p BluRay 6CH (5.1) AAC x264 - Ei","tr":["udp://exodus.desync.com:6969","udp://open.demonii.com:1337","udp://tracker.coppersurfer.tk:6969","udp://tracker.leechers-paradise.org:6969","udp://zer0day.ch:1337"],"infoHash":"31eecc9d0a809fca2bf2817e28b986b2deceb346","infoHashBuffer":{"type":"Buffer","data":[49,238,204,157,10,128,159,202,43,242,129,126,40,185,134,178,222,206,179,70]},"name":"12 Deaths Of Christmas 2017 1080p BluRay 6CH (5.1) AAC x264 - Ei","announce":["udp://exodus.desync.com:6969","udp://open.demonii.com:1337","udp://tracker.coppersurfer.tk:6969","udp://tracker.leechers-paradise.org:6969","udp://zer0day.ch:1337"],"urlList":[]}}